<mxfile host="app.diagrams.net" agent="Mozilla/5.0 (Windows NT 10.0; Win64; x64) AppleWebKit/537.36 (KHTML, like Gecko) Chrome/136.0.0.0 Safari/537.36" version="27.0.5">
  <diagram name="Página-1" id="VrnRdw2pO7HP3P52VHbZ">
    <mxGraphModel grid="1" page="1" gridSize="10" guides="1" tooltips="1" connect="1" arrows="1" fold="1" pageScale="1" pageWidth="827" pageHeight="1169" math="0" shadow="0">
      <root>
        <mxCell id="0" />
        <mxCell id="1" parent="0" />
        <mxCell id="cb1wgaif4VXUHTGxwLCo-12" value="Passageiros" style="shape=umlActor;verticalLabelPosition=bottom;verticalAlign=top;html=1;outlineConnect=0;" vertex="1" parent="1">
          <mxGeometry x="10" y="-325" width="70" height="100" as="geometry" />
        </mxCell>
        <mxCell id="cb1wgaif4VXUHTGxwLCo-20" value="Criar lista de desejos" style="ellipse;whiteSpace=wrap;html=1;" vertex="1" parent="1">
          <mxGeometry x="195" y="-140" width="130" height="70" as="geometry" />
        </mxCell>
        <mxCell id="cb1wgaif4VXUHTGxwLCo-21" value="Criar e gerenciar excursões" style="ellipse;whiteSpace=wrap;html=1;" vertex="1" parent="1">
          <mxGeometry x="780" y="-575" width="110" height="60" as="geometry" />
        </mxCell>
        <mxCell id="cb1wgaif4VXUHTGxwLCo-22" value="Cancelar vaga na excursão" style="ellipse;whiteSpace=wrap;html=1;" vertex="1" parent="1">
          <mxGeometry x="-250" y="-285" width="110" height="60" as="geometry" />
        </mxCell>
        <mxCell id="cb1wgaif4VXUHTGxwLCo-23" value="Visualizar disponibilidade de vagas" style="ellipse;whiteSpace=wrap;html=1;" vertex="1" parent="1">
          <mxGeometry x="-475" y="-600" width="110" height="60" as="geometry" />
        </mxCell>
        <mxCell id="cb1wgaif4VXUHTGxwLCo-24" value="Visualizar previsão do tempo&amp;nbsp;" style="ellipse;whiteSpace=wrap;html=1;" vertex="1" parent="1">
          <mxGeometry x="195" y="-260" width="110" height="60" as="geometry" />
        </mxCell>
        <mxCell id="cb1wgaif4VXUHTGxwLCo-25" value="Cadastrar Usuário" style="ellipse;whiteSpace=wrap;html=1;" vertex="1" parent="1">
          <mxGeometry x="175" y="-620" width="120" height="60" as="geometry" />
        </mxCell>
        <mxCell id="cb1wgaif4VXUHTGxwLCo-37" value="Compartilhar excursões com amigos&amp;nbsp;" style="ellipse;whiteSpace=wrap;html=1;" vertex="1" parent="1">
          <mxGeometry x="430" y="-150" width="110" height="60" as="geometry" />
        </mxCell>
        <mxCell id="cb1wgaif4VXUHTGxwLCo-38" value="Categorias de excursões" style="ellipse;whiteSpace=wrap;html=1;" vertex="1" parent="1">
          <mxGeometry x="390" y="-225" width="110" height="60" as="geometry" />
        </mxCell>
        <mxCell id="cb1wgaif4VXUHTGxwLCo-40" value="Visualizar Recomendação de excursão" style="ellipse;whiteSpace=wrap;html=1;" vertex="1" parent="1">
          <mxGeometry x="-50" y="-490" width="110" height="60" as="geometry" />
        </mxCell>
        <mxCell id="cb1wgaif4VXUHTGxwLCo-41" value="Escolher a múltiplos idiomas&amp;nbsp;" style="ellipse;whiteSpace=wrap;html=1;" vertex="1" parent="1">
          <mxGeometry x="50" y="-614" width="110" height="60" as="geometry" />
        </mxCell>
        <mxCell id="cb1wgaif4VXUHTGxwLCo-44" value="Realizar Pagameto" style="ellipse;whiteSpace=wrap;html=1;" vertex="1" parent="1">
          <mxGeometry x="-290" y="-660" width="110" height="60" as="geometry" />
        </mxCell>
        <mxCell id="cb1wgaif4VXUHTGxwLCo-45" value="Chat interno com gestor&amp;nbsp;" style="ellipse;whiteSpace=wrap;html=1;" vertex="1" parent="1">
          <mxGeometry x="590" y="-260" width="110" height="60" as="geometry" />
        </mxCell>
        <mxCell id="cb1wgaif4VXUHTGxwLCo-46" value="Lista de desejos + alerta de excursões similares&amp;nbsp;" style="ellipse;whiteSpace=wrap;html=1;" vertex="1" parent="1">
          <mxGeometry x="640" y="-170" width="130" height="80" as="geometry" />
        </mxCell>
        <mxCell id="cb1wgaif4VXUHTGxwLCo-47" value="Gestor da excursão" style="shape=umlActor;verticalLabelPosition=bottom;verticalAlign=top;html=1;outlineConnect=0;" vertex="1" parent="1">
          <mxGeometry x="740" y="-360" width="70" height="100" as="geometry" />
        </mxCell>
        <mxCell id="cb1wgaif4VXUHTGxwLCo-51" value="" style="edgeStyle=none;html=1;endArrow=none;verticalAlign=bottom;rounded=0;exitX=0.5;exitY=0.5;exitDx=0;exitDy=0;exitPerimeter=0;entryX=0.083;entryY=0.667;entryDx=0;entryDy=0;entryPerimeter=0;" edge="1" parent="1" source="cb1wgaif4VXUHTGxwLCo-12" target="cb1wgaif4VXUHTGxwLCo-25">
          <mxGeometry width="160" relative="1" as="geometry">
            <mxPoint x="50" y="-500.77" as="sourcePoint" />
            <mxPoint x="200" y="-480" as="targetPoint" />
          </mxGeometry>
        </mxCell>
        <mxCell id="cb1wgaif4VXUHTGxwLCo-53" value="" style="edgeStyle=none;html=1;endArrow=none;verticalAlign=bottom;rounded=0;entryX=1;entryY=1;entryDx=0;entryDy=0;exitX=0.5;exitY=0.5;exitDx=0;exitDy=0;exitPerimeter=0;" edge="1" parent="1" source="cb1wgaif4VXUHTGxwLCo-12" target="cb1wgaif4VXUHTGxwLCo-23">
          <mxGeometry width="160" relative="1" as="geometry">
            <mxPoint x="70" y="-270" as="sourcePoint" />
            <mxPoint x="220" y="-480" as="targetPoint" />
          </mxGeometry>
        </mxCell>
        <mxCell id="cb1wgaif4VXUHTGxwLCo-54" value="" style="edgeStyle=none;html=1;endArrow=none;verticalAlign=bottom;rounded=0;exitX=0.5;exitY=0.5;exitDx=0;exitDy=0;exitPerimeter=0;entryX=0.027;entryY=0.269;entryDx=0;entryDy=0;entryPerimeter=0;" edge="1" parent="1" source="cb1wgaif4VXUHTGxwLCo-12" target="cb1wgaif4VXUHTGxwLCo-20">
          <mxGeometry width="160" relative="1" as="geometry">
            <mxPoint x="103" y="-290" as="sourcePoint" />
            <mxPoint x="230" y="-470" as="targetPoint" />
          </mxGeometry>
        </mxCell>
        <mxCell id="kVvYCfMGW6Z4ZvsNuyH6-1" value="" style="edgeStyle=none;html=1;endArrow=none;verticalAlign=bottom;rounded=0;entryX=0.036;entryY=0.37;entryDx=0;entryDy=0;entryPerimeter=0;exitX=0.5;exitY=0.5;exitDx=0;exitDy=0;exitPerimeter=0;" edge="1" parent="1" source="cb1wgaif4VXUHTGxwLCo-12" target="cb1wgaif4VXUHTGxwLCo-24">
          <mxGeometry width="160" relative="1" as="geometry">
            <mxPoint x="80" y="-260" as="sourcePoint" />
            <mxPoint x="220" y="-250" as="targetPoint" />
          </mxGeometry>
        </mxCell>
        <mxCell id="kVvYCfMGW6Z4ZvsNuyH6-2" value="" style="edgeStyle=none;html=1;endArrow=none;verticalAlign=bottom;rounded=0;entryX=0;entryY=0.5;entryDx=0;entryDy=0;" edge="1" parent="1">
          <mxGeometry width="160" relative="1" as="geometry">
            <mxPoint x="40" y="-270" as="sourcePoint" />
            <mxPoint x="-142.49999999999613" y="-260" as="targetPoint" />
          </mxGeometry>
        </mxCell>
        <mxCell id="kVvYCfMGW6Z4ZvsNuyH6-3" value="" style="edgeStyle=none;html=1;endArrow=none;verticalAlign=bottom;rounded=0;exitX=0.5;exitY=0.5;exitDx=0;exitDy=0;exitPerimeter=0;entryX=0.055;entryY=0.7;entryDx=0;entryDy=0;entryPerimeter=0;" edge="1" parent="1" source="cb1wgaif4VXUHTGxwLCo-47" target="cb1wgaif4VXUHTGxwLCo-21">
          <mxGeometry width="160" relative="1" as="geometry">
            <mxPoint x="90" y="-420" as="sourcePoint" />
            <mxPoint x="210" y="-410" as="targetPoint" />
          </mxGeometry>
        </mxCell>
        <mxCell id="aC6p9mn3i0gXKZTu0hOy-8" value="" style="endArrow=none;html=1;rounded=0;entryX=0;entryY=0.3333333333333333;entryDx=0;entryDy=0;entryPerimeter=0;exitX=1;exitY=0.5;exitDx=0;exitDy=0;" edge="1" parent="1" source="cb1wgaif4VXUHTGxwLCo-45" target="cb1wgaif4VXUHTGxwLCo-47">
          <mxGeometry width="50" height="50" relative="1" as="geometry">
            <mxPoint x="670" y="-270" as="sourcePoint" />
            <mxPoint x="720" y="-320" as="targetPoint" />
          </mxGeometry>
        </mxCell>
        <mxCell id="aC6p9mn3i0gXKZTu0hOy-11" value="" style="endArrow=none;dashed=1;html=1;rounded=0;entryX=0.5;entryY=1;entryDx=0;entryDy=0;exitX=0;exitY=0;exitDx=0;exitDy=0;" edge="1" parent="1" source="cb1wgaif4VXUHTGxwLCo-46" target="cb1wgaif4VXUHTGxwLCo-45">
          <mxGeometry width="50" height="50" relative="1" as="geometry">
            <mxPoint x="570" y="-160" as="sourcePoint" />
            <mxPoint x="620" y="-210" as="targetPoint" />
          </mxGeometry>
        </mxCell>
        <mxCell id="aC6p9mn3i0gXKZTu0hOy-33" value="&amp;lt;extend&amp;gt;" style="edgeStyle=none;html=1;startArrow=none;endArrow=none;startSize=12;verticalAlign=bottom;dashed=1;labelBackgroundColor=none;rounded=0;startFill=0;entryX=0.091;entryY=0.783;entryDx=0;entryDy=0;entryPerimeter=0;" edge="1" parent="1" target="cb1wgaif4VXUHTGxwLCo-45">
          <mxGeometry x="-1" y="-23" width="160" relative="1" as="geometry">
            <mxPoint x="540" y="-220" as="sourcePoint" />
            <mxPoint x="580" y="-212" as="targetPoint" />
            <Array as="points" />
            <mxPoint x="-15" y="-10" as="offset" />
          </mxGeometry>
        </mxCell>
        <mxCell id="aC6p9mn3i0gXKZTu0hOy-34" value="&amp;lt;extend&amp;gt;" style="edgeStyle=none;html=1;startArrow=none;endArrow=none;startSize=12;verticalAlign=bottom;dashed=1;labelBackgroundColor=none;rounded=0;startFill=0;entryX=0.327;entryY=0.933;entryDx=0;entryDy=0;entryPerimeter=0;exitX=1;exitY=0.5;exitDx=0;exitDy=0;" edge="1" parent="1" source="cb1wgaif4VXUHTGxwLCo-37" target="cb1wgaif4VXUHTGxwLCo-45">
          <mxGeometry x="-0.2758" y="-9" width="160" relative="1" as="geometry">
            <mxPoint x="560" y="-180" as="sourcePoint" />
            <mxPoint x="710" y="-177" as="targetPoint" />
            <Array as="points" />
            <mxPoint as="offset" />
          </mxGeometry>
        </mxCell>
        <mxCell id="aC6p9mn3i0gXKZTu0hOy-41" style="edgeStyle=orthogonalEdgeStyle;rounded=0;orthogonalLoop=1;jettySize=auto;html=1;exitX=0.5;exitY=1;exitDx=0;exitDy=0;" edge="1" parent="1" source="cb1wgaif4VXUHTGxwLCo-38" target="cb1wgaif4VXUHTGxwLCo-38">
          <mxGeometry relative="1" as="geometry" />
        </mxCell>
        <mxCell id="XFA2oMRwkVe9qAQfwrUn-2" value="" style="edgeStyle=none;html=1;endArrow=none;verticalAlign=bottom;rounded=0;exitX=0.5;exitY=0.5;exitDx=0;exitDy=0;exitPerimeter=0;entryX=0.5;entryY=1;entryDx=0;entryDy=0;" edge="1" parent="1" target="cb1wgaif4VXUHTGxwLCo-41">
          <mxGeometry width="160" relative="1" as="geometry">
            <mxPoint x="50" y="-305" as="sourcePoint" />
            <mxPoint x="135" y="-550" as="targetPoint" />
          </mxGeometry>
        </mxCell>
        <mxCell id="XFA2oMRwkVe9qAQfwrUn-3" value="" style="edgeStyle=none;html=1;endArrow=none;verticalAlign=bottom;rounded=0;exitX=0.473;exitY=1.023;exitDx=0;exitDy=0;exitPerimeter=0;" edge="1" parent="1" source="cb1wgaif4VXUHTGxwLCo-40" target="cb1wgaif4VXUHTGxwLCo-12">
          <mxGeometry width="160" relative="1" as="geometry">
            <mxPoint x="-50" y="-400" as="sourcePoint" />
            <mxPoint x="110" y="-400" as="targetPoint" />
          </mxGeometry>
        </mxCell>
        <mxCell id="XFA2oMRwkVe9qAQfwrUn-9" value="Cancelar excursão" style="ellipse;whiteSpace=wrap;html=1;" vertex="1" parent="1">
          <mxGeometry x="860" y="-465" width="110" height="60" as="geometry" />
        </mxCell>
        <mxCell id="XFA2oMRwkVe9qAQfwrUn-10" value="" style="edgeStyle=none;html=1;endArrow=none;verticalAlign=bottom;rounded=0;exitX=0.75;exitY=0.1;exitDx=0;exitDy=0;exitPerimeter=0;entryX=0;entryY=1;entryDx=0;entryDy=0;" edge="1" parent="1" source="cb1wgaif4VXUHTGxwLCo-47" target="XFA2oMRwkVe9qAQfwrUn-9">
          <mxGeometry width="160" relative="1" as="geometry">
            <mxPoint x="785" y="-300" as="sourcePoint" />
            <mxPoint x="796" y="-523" as="targetPoint" />
          </mxGeometry>
        </mxCell>
        <mxCell id="XFA2oMRwkVe9qAQfwrUn-11" value="receber&amp;nbsp; alerta de excursões similares" style="ellipse;whiteSpace=wrap;html=1;" vertex="1" parent="1">
          <mxGeometry x="40" y="-100" width="130" height="70" as="geometry" />
        </mxCell>
        <mxCell id="XFA2oMRwkVe9qAQfwrUn-12" value="" style="edgeStyle=none;html=1;endArrow=none;verticalAlign=bottom;rounded=0;entryX=0.5;entryY=0;entryDx=0;entryDy=0;exitX=0.5;exitY=0.5;exitDx=0;exitDy=0;exitPerimeter=0;" edge="1" parent="1" source="cb1wgaif4VXUHTGxwLCo-12" target="XFA2oMRwkVe9qAQfwrUn-11">
          <mxGeometry width="160" relative="1" as="geometry">
            <mxPoint x="200" y="-250" as="sourcePoint" />
            <mxPoint x="360" y="-250" as="targetPoint" />
          </mxGeometry>
        </mxCell>
        <mxCell id="XFA2oMRwkVe9qAQfwrUn-13" value="" style="edgeStyle=none;html=1;endArrow=none;verticalAlign=bottom;rounded=0;exitX=0.5;exitY=0.5;exitDx=0;exitDy=0;exitPerimeter=0;entryX=0.5;entryY=1;entryDx=0;entryDy=0;" edge="1" parent="1" source="cb1wgaif4VXUHTGxwLCo-12" target="cb1wgaif4VXUHTGxwLCo-44">
          <mxGeometry width="160" relative="1" as="geometry">
            <mxPoint x="460" y="-250" as="sourcePoint" />
            <mxPoint x="620" y="-250" as="targetPoint" />
          </mxGeometry>
        </mxCell>
        <mxCell id="XFA2oMRwkVe9qAQfwrUn-14" value="Procurar excursão" style="ellipse;whiteSpace=wrap;html=1;" vertex="1" parent="1">
          <mxGeometry x="-460" y="-340" width="140" height="70" as="geometry" />
        </mxCell>
        <mxCell id="XFA2oMRwkVe9qAQfwrUn-15" value="" style="edgeStyle=none;html=1;endArrow=none;verticalAlign=bottom;rounded=0;" edge="1" parent="1" source="cb1wgaif4VXUHTGxwLCo-12" target="XFA2oMRwkVe9qAQfwrUn-14">
          <mxGeometry width="160" relative="1" as="geometry">
            <mxPoint x="210" y="-400" as="sourcePoint" />
            <mxPoint x="370" y="-400" as="targetPoint" />
          </mxGeometry>
        </mxCell>
        <mxCell id="XFA2oMRwkVe9qAQfwrUn-16" value="Selecionar excursão" style="ellipse;whiteSpace=wrap;html=1;" vertex="1" parent="1">
          <mxGeometry x="-490" y="-440" width="140" height="70" as="geometry" />
        </mxCell>
        <mxCell id="XFA2oMRwkVe9qAQfwrUn-17" value="" style="edgeStyle=none;html=1;endArrow=none;verticalAlign=bottom;rounded=0;" edge="1" parent="1" target="XFA2oMRwkVe9qAQfwrUn-16">
          <mxGeometry width="160" relative="1" as="geometry">
            <mxPoint x="20" y="-275" as="sourcePoint" />
            <mxPoint x="-179" y="-333" as="targetPoint" />
          </mxGeometry>
        </mxCell>
        <mxCell id="XFA2oMRwkVe9qAQfwrUn-18" value="&amp;lt;&amp;lt;include&amp;gt;&amp;gt;" style="edgeStyle=none;html=1;endArrow=open;verticalAlign=bottom;dashed=1;labelBackgroundColor=none;rounded=0;entryX=0.548;entryY=0.04;entryDx=0;entryDy=0;entryPerimeter=0;" edge="1" parent="1" target="XFA2oMRwkVe9qAQfwrUn-14">
          <mxGeometry width="160" relative="1" as="geometry">
            <mxPoint x="-420" y="-370.83000000000004" as="sourcePoint" />
            <mxPoint x="-260" y="-370.83000000000004" as="targetPoint" />
          </mxGeometry>
        </mxCell>
        <mxCell id="XFA2oMRwkVe9qAQfwrUn-19" value="&amp;lt;&amp;lt;include&amp;gt;&amp;gt;" style="edgeStyle=none;html=1;endArrow=open;verticalAlign=bottom;dashed=1;labelBackgroundColor=none;rounded=0;exitX=0.5;exitY=1;exitDx=0;exitDy=0;" edge="1" parent="1" source="cb1wgaif4VXUHTGxwLCo-23" target="XFA2oMRwkVe9qAQfwrUn-16">
          <mxGeometry width="160" relative="1" as="geometry">
            <mxPoint x="-340" y="-520" as="sourcePoint" />
            <mxPoint x="-180" y="-520" as="targetPoint" />
          </mxGeometry>
        </mxCell>
        <mxCell id="XFA2oMRwkVe9qAQfwrUn-20" value="&amp;lt;&amp;lt;extend&amp;gt;&amp;gt;" style="edgeStyle=none;html=1;startArrow=open;endArrow=none;startSize=12;verticalAlign=bottom;dashed=1;labelBackgroundColor=none;rounded=0;exitX=0.01;exitY=0.597;exitDx=0;exitDy=0;exitPerimeter=0;entryX=0.909;entryY=0.169;entryDx=0;entryDy=0;entryPerimeter=0;" edge="1" parent="1" source="cb1wgaif4VXUHTGxwLCo-44" target="cb1wgaif4VXUHTGxwLCo-23">
          <mxGeometry width="160" relative="1" as="geometry">
            <mxPoint x="-360" y="-530" as="sourcePoint" />
            <mxPoint x="-200" y="-530" as="targetPoint" />
          </mxGeometry>
        </mxCell>
      </root>
    </mxGraphModel>
  </diagram>
</mxfile>
